<svg class="svg-icon" style="width: 1em; height: 1em;vertical-align: middle;fill: #ffffff;overflow: hidden;" viewBox="0 0 1024 1024" version="1.1" xmlns="http://www.w3.org/2000/svg"><path d="M768 785.066667a17.015467 17.015467 0 0 1-12.066133-5.000534L512 536.132267 268.066133 780.066133a17.0496 17.0496 0 1 1-24.132266-24.132266l256-256a17.0496 17.0496 0 0 1 24.132266 0l256 256A17.0496 17.0496 0 0 1 768 785.066667z m0-256a17.015467 17.015467 0 0 1-12.066133-5.000534L512 280.132267 268.066133 524.066133a17.0496 17.0496 0 1 1-24.132266-24.132266l256-256a17.0496 17.0496 0 0 1 24.132266 0l256 256A17.0496 17.0496 0 0 1 768 529.066667z"  /></svg>