<?xml version="1.0" encoding="UTF-8"?>
<svg id="Livello_2" data-name="Livello 2" xmlns="http://www.w3.org/2000/svg" viewBox="0 0 292.46 292">
  <defs>
    <style>
      .cls-1 {
        fill: #fff;
      }
    </style>
  </defs>
  <g id="Livello_1-2" data-name="Livello 1">
    <g>
      <path class="cls-1" d="M53.4,213.61l-42.67,43.04L0,246.02l53.3-53.77,101.99,99.75H42.34l-26.45-30.24,10.77-10.87,16.36,16.22,63.86,.68-53.49-54.19Z"/>
      <path class="cls-1" d="M161.7,180.15l114.62,111.85h-112.96l-54.97-58.08,53.3-53.77Zm-31.94,53.68l21.52,21.34,36.29,4.56-4.32-36.81-21.52-21.34-31.97,32.25Z"/>
      <path class="cls-1" d="M292.46,292l-124.01-118.52,10.7-10.79,32.25,31.97,24.58,8.59-8.77-24.54-32.25-31.97,10.63-10.73,32.25,31.97,22.34,11.06-6.19-27.36-32.25-31.97,10.63-10.73,60.07,61.99v121.03Z"/>
      <path class="cls-1" d="M211.95,53.68l80.51,76.95v24.21L190.58,53.77,243.89,0l48.57,41.88v24.21l-48.55-44.65-31.97,32.25Z"/>
      <g>
        <path class="cls-1" d="M63.64,192.17l-5.41-5.42,27.15-27.11,16.26,16.28-5.38,5.37,5.41,5.42-5.42,5.41-5.41-5.42-10.94,10.92,5.41,5.42-5.42,5.41-10.85-10.86,21.7-21.67-5.41-5.42-21.7,21.67Z"/>
        <path class="cls-1" d="M94.3,150.73l21.67,21.7-5.45,5.44-21.67-21.7,5.45-5.44Z"/>
        <path class="cls-1" d="M119.13,158.45l16.25-16.23-2.84-2.85-9.51,9.5-5.41-5.42,15-14.98,13.66,13.68-27.15,27.11-21.67-21.7,27.15-27.11,5.41,5.42-21.73,21.7,10.85,10.86Z"/>
        <path class="cls-1" d="M163.29,98.11l5.41,5.42-21.73,21.7,8.11,8.12-5.42,5.41-21.67-21.7,5.42-5.41,8.15,8.16,21.73-21.7Z"/>
        <path class="cls-1" d="M191.03,64.8l-10.76,10.81,16.29,16.32-5.45,5.45-16.29-16.32-10.9,10.88-5.37-5.38,27.15-27.11,5.34,5.35Z"/>
      </g>
    </g>
  </g>
</svg>