<?xml version="1.0" encoding="UTF-8"?>
<svg id="Livello_2" data-name="Livello 2" xmlns="http://www.w3.org/2000/svg" viewBox="0 0 292 292.46">
  <defs>
    <style>
      .cls-1 {
        fill: #fff;
      }
    </style>
  </defs>
  <g id="Livello_1-2" data-name="Livello 1">
    <g>
      <path class="cls-1" d="M78.39,53.4L35.35,10.73,45.98,0l53.77,53.3L0,155.3V42.34L30.24,15.88l10.87,10.77-16.22,16.36-.68,63.86,54.19-53.49Z"/>
      <path class="cls-1" d="M111.85,161.7L0,276.32v-112.96l58.08-54.97,53.77,53.3Zm-53.68-31.94l-21.34,21.52-4.56,36.29,36.81-4.32,21.34-21.52-32.25-31.97Z"/>
      <path class="cls-1" d="M0,292.46l118.52-124.01,10.79,10.7-31.97,32.25-8.59,24.58,24.54-8.77,31.97-32.25,10.73,10.63-31.97,32.25-11.06,22.34,27.36-6.19,31.97-32.25,10.73,10.63-61.99,60.07H0Z"/>
      <path class="cls-1" d="M238.32,211.95l-76.95,80.51h-24.21l101.07-101.88,53.77,53.3-41.88,48.57h-24.21l44.65-48.55-32.25-31.97Z"/>
      <g>
        <path class="cls-1" d="M117.34,105.96l-5.8,5.82-29.18-29.1,23.25-23.32,5.82,5.81-17.45,17.5,23.36,23.29Z"/>
        <path class="cls-1" d="M126.78,115.44l23.36,23.29-5.8,5.82-29.18-29.09,23.25-23.32,29.18,29.09-14.66,14.7-16.12-16.07,5.8-5.82,10.22,10.19,3.05-3.06-17.46-17.41-11.65,11.68Z"/>
        <path class="cls-1" d="M200.45,153.94l-5.8,5.82-29.17-29.09,5.8-5.82,29.17,29.09Zm-11.61,11.64l-5.84,5.86-23.36-23.29-5.8,5.82-5.82-5.8,11.65-11.68,29.17,29.09Z"/>
        <path class="cls-1" d="M227.56,192.43l-11.64-11.54-17.49,17.54-5.85-5.84,17.49-17.54-11.72-11.68,5.77-5.78,29.18,29.09-5.73,5.75Z"/>
      </g>
    </g>
  </g>
</svg>