<?xml version="1.0" encoding="UTF-8"?>
<svg id="Livello_2" data-name="Livello 2" xmlns="http://www.w3.org/2000/svg" viewBox="0 0 296.56 280.35">
  <defs>
    <style>
      .cls-1 {
        fill: #fff;
      }
    </style>
  </defs>
  <g id="Livello_1-2" data-name="Livello 1">
    <g>
      <path class="cls-1" d="M94.25,188.91l-30.24,30.33,45.7,45.85-15.31,15.26-45.7-45.85-30.63,30.53L0,250,1,94.23l93.25,94.68Z"/>
      <path class="cls-1" d="M66.55,0l114.27,104.22-76.28,76.04L1,77.85V0H66.55Zm7.6,119.33l30.43,30.53,45.75-45.6-30.43-30.53-49.25,.02,3.5,45.59Z"/>
      <path class="cls-1" d="M189.84,94.01L87.04,0H250.92l45.64,48.5-61.06,60.87,15.17,15.22-15.23,15.18-30.43-30.53,60.97-60.77-15.17-15.22-60.97,60.77Z"/>
      <g>
        <path class="cls-1" d="M134.11,229.56l5.4,5.42-27.15,27.06-21.63-21.7,5.42-5.4,16.23,16.28,21.73-21.66Z"/>
        <path class="cls-1" d="M142.96,220.81l21.73-21.66,5.4,5.42-27.15,27.06-21.63-21.7,27.15-27.06,13.63,13.68-14.99,14.95-5.4-5.42,9.51-9.48-2.84-2.85-16.25,16.19,10.83,10.87Z"/>
        <path class="cls-1" d="M178.97,152.39l5.4,5.42-27.14,27.06-5.4-5.42,27.14-27.06Zm10.8,10.83l5.43,5.45-21.73,21.66,5.4,5.42-5.41,5.4-10.83-10.86,27.14-27.06Z"/>
        <path class="cls-1" d="M214.85,127.28l-10.76,10.8,16.26,16.32-5.45,5.43-16.26-16.32-10.9,10.87-5.36-5.38,27.15-27.06,5.33,5.35Z"/>
      </g>
    </g>
  </g>
</svg>