<?xml version="1.0" encoding="UTF-8"?>
<svg id="Livello_2" data-name="Livello 2" xmlns="http://www.w3.org/2000/svg" viewBox="0 0 280.67 295.4">
  <defs>
    <style>
      .cls-1 {
        fill: #fff;
      }
    </style>
  </defs>
  <g id="Livello_1-2" data-name="Livello 1">
    <g>
      <path class="cls-1" d="M91.44,92.6l-30.23-30.34L15.21,107.81,0,92.45,46,46.9,15.58,16.17,30.67,.62H185.67L91.44,92.6Z"/>
      <path class="cls-1" d="M280.45,65.55l-104.6,113.91L100.07,102.93,201.67,.62l79-.62-.22,65.55Zm-119.36,7.2l-30.63,30.33,45.45,45.9,30.63-30.33,.15-49.25-45.6,3.35Z"/>
      <path class="cls-1" d="M186.02,188.52l94.36-102.48-.56,163.88-48.65,45.47-60.66-61.27-15.27,15.12-15.13-15.28,30.63-30.33,60.56,61.17,15.27-15.12-60.56-61.17Z"/>
      <g>
        <path class="cls-1" d="M36.36,98.61l5.02-4.85,24.33,25.18-15.1,14.59-4.82-4.99-5.02,4.85-4.85-5.02,5.02-4.85-9.8-10.14-5.02,4.85-4.85-5.02,10.08-9.74,19.45,20.12,5.02-4.85-19.45-20.12Z"/>
        <path class="cls-1" d="M73.71,127.21l-20.12,19.45-4.88-5.05,20.12-19.45,4.88,5.05Z"/>
        <path class="cls-1" d="M66.3,149.75l14.56,15.07,2.64-2.55-8.53-8.82,5.02-4.85,13.44,13.91-12.69,12.26-24.33-25.18,20.12-19.45,24.33,25.18-5.02,4.85-19.48-20.16-10.08,9.74Z"/>
        <path class="cls-1" d="M120.69,190.96l-5.02,4.85-19.48-20.16-7.53,7.28-4.85-5.02,20.12-19.45,4.85,5.02-7.57,7.31,19.48,20.16Z"/>
        <path class="cls-1" d="M150.68,216.78l-9.71-9.98-15.13,14.62-4.89-5.06,15.13-14.62-9.77-10.11,4.99-4.82,24.33,25.18-4.96,4.79Z"/>
      </g>
    </g>
  </g>
</svg>